<?xml version="1.0" encoding="UTF-8"?><svg id="Layer_2" xmlns="http://www.w3.org/2000/svg" viewBox="0 0 28.75 28.75"><defs><style>.cls-1{fill:#f5f5f5;}.cls-2{fill:#414141;stroke:#f5f5f5;stroke-miterlimit:3.59;stroke-width:.9px;}</style></defs><g id="Layer_1-2"><circle class="cls-2" cx="14.38" cy="14.38" r="13.93"/><path class="cls-1" d="m4.9,18.31c-.72-1.67.06-3.61,1.73-4.32.41-.17.85-.27,1.29-.27.23,0,.45.03.67.08l-.7,2.31-.36.7c-.27.53.52.93.79.41l.38-.74.03-.07.71-2.32c1.53.8,2.19,2.64,1.51,4.23-.72,1.67-2.65,2.44-4.32,1.72-.77-.33-1.39-.95-1.72-1.72Zm7.76-4.61c-1.17-1.32-2.3-2.61-2.31-2.61l.11-.31h6.4l-.88,2.92-.71,2.39h-.04c-.13,0-.26.03-.38.08l-2.18-2.47h0Zm3.41,2.82l.84-2.82.7-2.36,1.01,2.14c-1.06.67-1.76,1.79-1.9,3.03h-.65Zm1.77,1.79c-.12-.29-.2-.59-.24-.9h3.15c.37,0,.55-.41.33-.87-.27-.56-.7-1.44-1.27-2.64h0c1.72-.59,3.59.33,4.17,2.06.58,1.72-.34,3.59-2.06,4.17-.34.11-.69.17-1.05.17-1.31,0-2.5-.78-3.02-1.99Zm2.21-1.79h-2.44c.14-.9.64-1.7,1.38-2.22,0,0,1.06,2.22,1.06,2.22Zm-14.66-2.82c-1.03.79-1.63,2.01-1.63,3.31,0,.45.07.89.21,1.3.38,1.16,1.25,2.1,2.38,2.56,1.02.42,2.16.42,3.17,0h0c1.13-.47,2-1.4,2.38-2.56.13-.41.21-.85.21-1.3,0-1.35-.64-2.55-1.64-3.31-.24-.18-.5-.34-.77-.46l.36-1.15,1.43,1.62,2.83,3.21s0,.07,0,.11c0,.51.41.92.92.93.36,0,.69-.21.84-.53h.64c.03.31.09.61.19.9h0c.38,1.16,1.25,2.1,2.38,2.56,1.02.42,2.16.42,3.17,0h0c1.13-.47,2-1.4,2.38-2.56h0c.55-1.68-.02-3.53-1.43-4.61-.73-.56-1.62-.86-2.54-.86-.5,0-.99.09-1.45.26-.41-.86-.87-1.84-1.39-2.95-.01-.02-.03-.04-.05-.06l.34-1.1h.69c.59,0,.59-.9,0-.9h-2.26c-.59,0-.59.9,0,.9h.67s-.29.9-.29.9h-6.39s.45-1.45.45-1.45h1.16c.59,0,.59-.89,0-.89h-1.49c-.15,0-.38.17-.42.31l-1.55,5.07c-.31-.07-.62-.1-.94-.1-.92,0-1.81.3-2.54.86h0Z"/></g></svg>