<svg xmlns="http://www.w3.org/2000/svg" aria-hidden="true" class="IconViewer-module__icon--mNSnV" viewBox="0 0 37 30"><path d="M36.67 5.934v16.127a3.56 3.56 0 0 1-1.791 3.082v2.742c0 .734-.61 1.344-1.344 1.344h-.896c-.735 0-1.344-.61-1.344-1.344v-2.24H18.752v2.24c0 .734-.61 1.344-1.344 1.344h-.896c-.735 0-1.344-.61-1.344-1.344v-2.742c-1.093-.645-1.792-1.81-1.792-3.082V5.934C13.376.56 18.752.56 25.023.56c6.272 0 11.647 0 11.647 5.375ZM20.543 20.27c0-.985-.806-1.792-1.791-1.792-.986 0-1.792.807-1.792 1.792 0 .986.806 1.792 1.792 1.792.985 0 1.792-.806 1.792-1.792Zm12.544 0c0-.985-.807-1.792-1.792-1.792-.986 0-1.792.807-1.792 1.792 0 .986.806 1.792 1.792 1.792.985 0 1.792-.806 1.792-1.792Zm0-14.335H16.96v7.168h16.127V5.934Zm-23.295 4.48c-.053-2.473-2.096-4.48-4.569-4.39a4.481 4.481 0 0 0-4.39 4.57 4.498 4.498 0 0 0 3.584 4.3V29.23h1.792V14.894c2.114-.43 3.583-2.312 3.583-4.48Z" style="fill:var(--icon-color)"/></svg>